<svg width="82" height="95" viewBox="0 0 82 95" fill="none" xmlns="http://www.w3.org/2000/svg">
<path d="M40.2004 0.715332H0.438477V80.2548H53.9145L66.378 94.4471V80.2548H79.9671V0.715332L40.2004 0.715332Z" fill="#5AB9EA"/>
<path d="M70.3762 56.2812L67.3024 65.5327H15.6543L30.0948 79.9752L79.9679 80.2542V65.8743L70.3762 56.2812Z" fill="url(#paint0_linear)"/>
<path d="M71.6223 39.2451L68.866 47.2505H10.6133L15.6352 52.2732L81.3631 52.1481V48.9873L71.6223 39.2451Z" fill="url(#paint1_linear)"/>
<path d="M47.8676 18.1353L47.9398 28.9695H13.498L18.52 33.9921H63.7223L47.8676 18.1353Z" fill="url(#paint2_linear)"/>
<path d="M9.3916 63.5074L11.4312 61.0682C12.636 62.0756 14.1516 62.6364 15.722 62.6558C16.684 62.6558 17.2324 62.3142 17.2324 61.6936C17.2324 61.073 16.7995 60.8421 15.0004 60.4283C12.1816 59.7837 10.0073 58.9851 10.0073 56.2284C10.0073 53.77 11.9314 51.9947 15.1303 51.9947C17.0963 51.9202 19.0253 52.544 20.5755 53.7556L18.7428 56.3438C17.6679 55.5456 16.3767 55.0912 15.0389 55.0401C14.149 55.0401 13.7161 55.4201 13.7161 55.9301C13.7161 56.5363 14.1682 56.8009 16.0058 57.2146C19.0507 57.8785 20.9411 58.86 20.9411 61.3761C20.9411 64.0799 18.8053 65.706 15.5921 65.706C13.3256 65.7582 11.119 64.9757 9.3916 63.5074Z" fill="white"/>
<path d="M22.7207 52.2358H26.391V57.1911H31.1002V52.2358H34.7705V65.4708H31.0954V60.4433H26.391V65.4756H22.7207V52.2358Z" fill="white"/>
<path d="M36.6553 58.8557C36.6553 55.055 39.7194 51.9712 43.8034 51.9712C47.8873 51.9712 50.913 55.0165 50.913 58.8557C50.913 62.6948 47.8488 65.7401 43.7649 65.7401C39.6809 65.7401 36.6553 62.6948 36.6553 58.8557ZM47.1706 58.8557C47.1866 58.3967 47.1107 57.9392 46.9472 57.5102C46.7836 57.0811 46.5359 56.6891 46.2185 56.3573C45.901 56.0254 45.5204 55.7606 45.099 55.5782C44.6776 55.3959 44.224 55.2998 43.7649 55.2956C41.759 55.2956 40.3977 56.9217 40.3977 58.8701C40.379 59.3272 40.4518 59.7834 40.6119 60.2119C40.7719 60.6405 41.0159 61.0328 41.3295 61.3657C41.6432 61.6987 42.0202 61.9656 42.4384 62.1509C42.8566 62.3362 43.3076 62.436 43.7649 62.4446C45.8285 62.4302 47.1706 60.8041 47.1706 58.8557Z" fill="white"/>
<path d="M51.1777 52.2367H55.0548L57.359 59.8958L59.9132 52.1982H63.0688L65.623 59.8958L67.9272 52.2367H71.7273L67.3018 65.5679H64.1078L61.4429 57.9473L58.7972 65.5679H55.6032L51.1777 52.2367Z" fill="white"/>
<path d="M10.3936 33.9497H14.0638V39.3187L18.6192 33.9497H22.9484L17.9553 39.6411L23.136 47.1846H18.7202L15.4059 42.2727L14.0638 43.7496V47.1702H10.3936V33.9497Z" fill="white"/>
<path d="M24.1973 33.9497H27.6174L33.0626 40.9448V33.9497H36.6944V47.1846H33.4811L27.8242 39.9249V47.1846H24.1973V33.9497Z" fill="white"/>
<path d="M38.584 40.5695C38.584 36.7689 41.6481 33.6851 45.7321 33.6851C49.816 33.6851 52.8417 36.7304 52.8417 40.5695C52.8417 44.4087 49.7775 47.454 45.6936 47.454C41.6097 47.454 38.584 44.4087 38.584 40.5695ZM49.0945 40.5695C49.1099 40.1114 49.0336 39.6548 48.8701 39.2266C48.7065 38.7984 48.4591 38.4072 48.1423 38.076C47.8254 37.7447 47.4456 37.4802 47.0251 37.2979C46.6046 37.1155 46.1519 37.0191 45.6936 37.0142C43.6877 37.0142 42.3264 38.6403 42.3264 40.5888C42.3077 41.0458 42.3805 41.5021 42.5406 41.9306C42.7006 42.3592 42.9446 42.7514 43.2582 43.0844C43.5719 43.4174 43.9489 43.6843 44.3671 43.8696C44.7853 44.0549 45.2363 44.1547 45.6936 44.1633C47.7524 44.1441 49.0945 42.518 49.0945 40.5695Z" fill="white"/>
<path d="M53.1064 33.9496H56.9835L59.2925 41.6087L61.8468 33.9111H65.0023L67.5566 41.6087L69.8607 33.9496H73.6608L69.2257 47.2808H66.0317L63.3716 39.6602L60.726 47.2808H57.5319L53.1064 33.9496Z" fill="white"/>
<path d="M13.6247 18.8768H9.65625V15.6631H21.2635V18.8768H17.2758V28.898H13.6247V18.8768Z" fill="white"/>
<path d="M22.874 15.6631H26.5443V20.6184H31.2247V15.6631H34.895V28.898H31.2247V23.8706H26.5395V28.898H22.874V15.6631Z" fill="white"/>
<path d="M37.2627 15.6631H47.9079V18.7854H40.8945V20.7916H47.2441V23.6781H40.8945V25.7757H48.0041V28.898H37.2627V15.6631Z" fill="white"/>
<defs>
<linearGradient id="paint0_linear" x1="51.5295" y1="87.6486" x2="47.2761" y2="62.5501" gradientUnits="userSpaceOnUse">
<stop stop-opacity="0"/>
<stop offset="1" stop-opacity="0.1"/>
</linearGradient>
<linearGradient id="paint1_linear" x1="47.9171" y1="59.5185" x2="45.112" y2="42.9689" gradientUnits="userSpaceOnUse">
<stop stop-opacity="0"/>
<stop offset="1" stop-opacity="0.15"/>
</linearGradient>
<linearGradient id="paint2_linear" x1="4147.46" y1="1396.73" x2="4114.59" y2="782.535" gradientUnits="userSpaceOnUse">
<stop stop-opacity="0"/>
<stop offset="1" stop-opacity="0.15"/>
</linearGradient>
</defs>
</svg>
